<svg xmlns="http://www.w3.org/2000/svg" width="77.264" height="85.731" viewBox="0 0 77.264 85.731">
  <g id="Gruppe_2" data-name="Gruppe 2" transform="translate(-1402 -171)">
    <circle id="Ellipse_3" data-name="Ellipse 3" cx="4.763" cy="4.763" r="4.763" transform="translate(1402 209.103)" fill="#fff" opacity="0.503"/>
    <circle id="Ellipse_4" data-name="Ellipse 4" cx="4.763" cy="4.763" r="4.763" transform="translate(1418.934 199.577)" fill="#fff" opacity="0.503"/>
    <circle id="Ellipse_5" data-name="Ellipse 5" cx="4.763" cy="4.763" r="4.763" transform="translate(1418.934 218.628)" fill="#fff" opacity="0.503"/>
    <circle id="Ellipse_6" data-name="Ellipse 6" cx="4.763" cy="4.763" r="4.763" transform="translate(1435.869 190.051)" fill="#fff" opacity="0.503"/>
    <circle id="Ellipse_7" data-name="Ellipse 7" cx="4.763" cy="4.763" r="4.763" transform="translate(1435.869 209.103)" fill="#fff" opacity="0.503"/>
    <circle id="Ellipse_8" data-name="Ellipse 8" cx="4.763" cy="4.763" r="4.763" transform="translate(1435.869 228.154)" fill="#fff" opacity="0.503"/>
    <circle id="Ellipse_19" data-name="Ellipse 19" cx="4.763" cy="4.763" r="4.763" transform="translate(1452.803 218.628)" fill="#fff" opacity="0.503"/>
    <circle id="Ellipse_20" data-name="Ellipse 20" cx="4.763" cy="4.763" r="4.763" transform="translate(1452.803 237.68)" fill="#fff" opacity="0.503"/>
    <circle id="Ellipse_23" data-name="Ellipse 23" cx="4.763" cy="4.763" r="4.763" transform="translate(1469.738 228.154)" fill="#fff" opacity="0.503"/>
    <circle id="Ellipse_24" data-name="Ellipse 24" cx="4.763" cy="4.763" r="4.763" transform="translate(1469.738 247.205)" fill="#fff" opacity="0.503"/>
    <circle id="Ellipse_25" data-name="Ellipse 25" cx="4.763" cy="4.763" r="4.763" transform="translate(1469.738 209.103)" fill="#fff" opacity="0.503"/>
    <circle id="Ellipse_21" data-name="Ellipse 21" cx="4.763" cy="4.763" r="4.763" transform="translate(1452.803 199.577)" fill="#fff" opacity="0.503"/>
    <circle id="Ellipse_22" data-name="Ellipse 22" cx="4.763" cy="4.763" r="4.763" transform="translate(1452.803 180.526)" fill="#fff" opacity="0.503"/>
    <circle id="Ellipse_26" data-name="Ellipse 26" cx="4.763" cy="4.763" r="4.763" transform="translate(1469.738 171)" fill="#fff" opacity="0.503"/>
    <circle id="Ellipse_27" data-name="Ellipse 27" cx="4.763" cy="4.763" r="4.763" transform="translate(1469.738 190.051)" fill="#fff" opacity="0.503"/>
  </g>
</svg>
